<?xml version="1.0" encoding="UTF-8"?>
<svg id="Layer_2" data-name="Layer 2" xmlns="http://www.w3.org/2000/svg" version="1.1" viewBox="0 0 878 506">
  <defs>
    <style>
      .cls-1 {
        fill: #ff6e1f;
      }

      .cls-1, .cls-2 {
        stroke-width: 0px;
      }

      .cls-2 {
        fill: #222;
      }
    </style>
  </defs>
  <g id="Icon">
    <path class="cls-1" d="M631.8,294.3c0-8.6-2.2-16.8-6.7-24.5-4.5-7.7-10.2-14.4-17.2-20,7.5-6,13.3-12.8,17.6-20.3,4.2-7.5,6.3-15.6,6.3-24.2V74.4h38.7V4.8h-106.8c-2.3,0-5.6,1.3-9.8,3.9-4.2,2.6-6.3,7.7-6.3,15.5v152.8c0,6-1.5,12.2-4.6,18.7-3,6.4-7.4,11.9-13,16.4s-11.7,6.8-18.3,6.8v60.6c9.4,1.7,17.7,6.6,24.9,14.5,7.3,8,10.9,17.5,10.9,28.7v159.9c0,7.7,2,12.9,6,15.5,4,2.6,7.4,3.9,10.2,3.9h106.8v-69.6h-38.7v-138h0Z"/>
    <path class="cls-2" d="M275.5,317h100.5v34.5c-18.1,21.1-37.3,37.5-57.6,49.1-23,13.1-47.3,19.7-73.1,19.7s-41.2-4.2-59-12.6c-17.8-8.4-33.4-20.3-46.7-35.5-13.3-15.2-23.7-32.9-30.9-53.1-7.3-20.1-10.9-42.2-10.9-66.1s3.3-43.8,9.8-64c6.6-20.1,16.2-37.9,28.8-53.4,12.6-15.5,27.8-27.6,45.3-36.6,17.6-8.9,36.9-13.3,58-13.3s51.5,6.6,74.5,19.7c23,13.1,40.5,32.1,52.7,56.9l72.4-53.4c-16.9-33.3-42.1-59.7-75.5-79.4C330.2,9.8,289.8,0,242.5,0s-66.1,6.4-95.6,19.3c-29.5,12.9-55.2,30.9-77,54.1-21.8,23.2-38.9,49.9-51.3,80.1C6.2,183.8,0,216,0,250.2s6.1,70.2,18.3,100.8c12.2,30.7,29.2,57.8,51,81.2,21.8,23.4,47,41.6,75.6,54.5,28.6,12.9,59.3,19.3,92.1,19.3,52.6,0,99-19.9,139.2-59.6v56.1h80.1V246h-180.6v71h0ZM868.1,93.5c-6.6-16.8-15.9-32-27.9-45.6-12-13.6-26.3-24.4-42.9-32.4-16.6-8-34.7-12-54.3-12h-44.5v72.6h39.1c10,0,19.3,2.7,27.9,8.1,8.6,5.4,15.6,13.2,21,23.4s8.1,22.7,8.1,37.5-2.3,25.7-6.9,36.3c-4.6,10.6-10.9,18.7-18.9,24.3-8,5.6-17.2,8.4-27.6,8.4h-79v72.6h84.4c26.4,0,49.5-6.8,69.3-20.4s35.1-31.3,45.9-53.1c10.8-21.8,16.2-44.5,16.2-68.1s-3.3-34.8-9.9-51.6h0Z"/>
  </g>
</svg>