<svg xmlns="http://www.w3.org/2000/svg" id="Layer_2" data-name="Layer 2" viewBox="0 0 878 506.04"><defs/><g id="Icon"><path d="M631.82 294.32c0-8.6-2.23-16.77-6.68-24.5-4.46-7.74-10.19-14.4-17.22-19.99 7.49-6.01 13.35-12.78 17.57-20.31 4.22-7.52 6.33-15.58 6.33-24.18V74.41h38.66V4.77H563.65c-2.35 0-5.62 1.29-9.84 3.87s-6.33 7.74-6.33 15.48v152.84c0 6.03-1.53 12.25-4.57 18.7-3.05 6.45-7.38 11.93-13 16.44-5.62 4.51-11.72 6.77-18.27 6.77v60.62c9.37 1.72 17.68 6.56 24.95 14.51 7.26 7.96 10.89 17.52 10.89 28.7v159.93c0 7.74 1.99 12.9 5.97 15.48 3.97 2.58 7.38 3.87 10.19 3.87h106.83v-69.65h-38.66V294.32Z" style="stroke-width:0;fill:#ff6e1f"/><path d="M275.51 316.98h100.5v34.49c-18.11 21.14-37.33 37.54-57.63 49.15-22.96 13.12-47.33 19.68-73.09 19.68-21.56 0-41.24-4.22-59.04-12.65-17.81-8.43-33.38-20.26-46.74-35.49-13.35-15.22-23.67-32.91-30.92-53.06-7.27-20.14-10.89-42.17-10.89-66.07 0-22.49 3.27-43.8 9.84-63.96 6.56-20.14 16.17-37.95 28.82-53.41 12.65-15.46 27.76-27.64 45.33-36.55 17.57-8.9 36.9-13.35 57.98-13.35 26.71 0 51.54 6.57 74.5 19.68 22.95 13.12 40.52 32.1 52.71 56.93l72.39-53.41c-16.87-33.26-42.06-59.74-75.55-79.42C330.21 9.84 289.8 0 242.48 0c-34.21 0-66.07 6.45-95.58 19.33-29.52 12.89-55.17 30.92-76.96 54.12-21.79 23.19-38.9 49.9-51.31 80.12C6.2 183.79 0 216.01 0 250.21c0 36.55 6.08 70.17 18.27 100.85 12.18 30.69 29.17 57.75 50.95 81.18 21.79 23.44 46.97 41.59 75.55 54.47 28.58 12.89 59.27 19.33 92.07 19.33 52.65 0 99.03-19.87 139.16-59.58v56.06h80.12V245.99H275.49v70.98ZM868.1 93.52c-6.6-16.8-15.9-32-27.9-45.6-12-13.59-26.31-24.39-42.9-32.4-16.6-8-34.71-12-54.3-12h-44.46v72.6h39.06c9.99 0 19.29 2.7 27.9 8.1 8.6 5.4 15.6 13.2 21 23.4s8.1 22.71 8.1 37.5c0 13.6-2.31 25.71-6.9 36.3-4.61 10.6-10.9 18.7-18.9 24.3-8.01 5.61-17.2 8.4-27.6 8.4h-79.04v72.6h84.44c26.4 0 49.5-6.8 69.3-20.4 19.8-13.6 35.1-31.3 45.9-53.1 10.8-21.8 16.2-44.5 16.2-68.1 0-17.6-3.3-34.8-9.9-51.6Z" class="cls-2"/></g></svg>