<svg xmlns="http://www.w3.org/2000/svg" viewBox="0 0 44.208 44.208"><g fill="none" stroke="#ff6e1f" stroke-linecap="round" stroke-linejoin="round" stroke-width="2" data-name="Icon ion-rocket-outline"><path d="M42.377 22.285a.309.309 0 0 0 .004-.332c-2.043-3.365-10.646-7.252-17.417-7.257a20.735 20.735 0 0 0-3.588.297 8.652 8.652 0 0 0-3.346-2.607c-3.614-1.407-7.228.746-8.669 1.78a.633.633 0 0 0-.03 1.004l4.474 3.587a12.676 12.676 0 0 0-.856.965 1.276 1.276 0 0 0-.288.815v3.121a1.276 1.276 0 0 0 .288.816 12.651 12.651 0 0 0 .85.958l-4.472 3.59a.633.633 0 0 0 .03 1.002c1.437 1.04 5.056 3.198 8.663 1.785a8.7 8.7 0 0 0 3.348-2.592 20.665 20.665 0 0 0 3.594.303c6.78.02 15.23-3.748 17.419-7.236Zm-16.06-.163a3 3 0 1 1 .879 2.124 3 3 0 0 1-.878-2.124Z" data-name="Path 106"/><path d="M10.042 19.601a3.168 3.168 0 0 0-1.946-.674C6.336 18.935 3 22.105 3 22.105s3.34 3.175 5.094 3.173a3.145 3.145 0 0 0 1.947-.674" data-name="Path 107"/></g></svg>